<?xml version="1.0" encoding="utf-8"?>
<!-- Generator: Adobe Illustrator 20.0.0, SVG Export Plug-In . SVG Version: 6.00 Build 0)  -->
<svg version="1.1" id="Layer_1" xmlns="http://www.w3.org/2000/svg" xmlns:xlink="http://www.w3.org/1999/xlink" x="0px" y="0px"
	 viewBox="0 0 2000 1500" style="enable-background:new 0 0 2000 1500;" xml:space="preserve">
<style type="text/css">
	.st0{fill:#EDEDED;}
	.st1{fill:#EBD3A7;}
	.st2{fill:#DDD4C7;}
	.st3{fill:none;stroke:#666566;stroke-width:5;stroke-miterlimit:10;}
	.st4{fill:none;stroke:#666566;stroke-width:2;stroke-miterlimit:10;}
	.st5{fill:none;stroke:#666566;stroke-width:3;stroke-miterlimit:10;}
	.st6{fill:#CFE5B4;}
	.st7{fill:#EA856A;}
	.st8{fill:#E5D3BF;}
	.st9{fill:#F8ECCC;}
	.st10{fill:#F7ECCC;}
	.st11{fill:#E8BE88;}
	.st12{fill:#86B5A3;stroke:#AA867E;stroke-width:7;stroke-miterlimit:10;}
	.st13{fill:none;stroke:#938A6F;stroke-width:7;stroke-miterlimit:10;}
	.st14{fill:#BCD8B2;}
	.st15{fill:#E3E7C5;}
	.st16{clip-path:url(#SVGID_4_);}
	.st17{fill:#CFD6CF;}
	.st18{fill:#FDF2F3;}
	.st19{fill:#FDE3E6;}
	.st20{fill:#E1E5E1;}
	.st21{clip-path:url(#SVGID_26_);}
	.st22{fill:#A89B80;}
	.st23{clip-path:url(#SVGID_28_);}
	.st24{fill:#D8EEEB;}
	.st25{clip-path:url(#SVGID_30_);}
	.st26{fill:#FFFFFF;stroke:#000000;stroke-miterlimit:10;}
	.st27{fill:#F4E48B;stroke:#000000;stroke-miterlimit:10;}
	.st28{clip-path:url(#SVGID_32_);}
	.st29{fill:#ED4889;}
	.st30{clip-path:url(#SVGID_34_);}
	.st31{fill:#90BBD2;stroke:#000000;stroke-width:1.5;stroke-miterlimit:10;}
	.st32{fill:#F7D1B1;stroke:#000000;stroke-width:1.5;stroke-miterlimit:10;}
	.st33{fill:#F0DBEB;stroke:#000000;stroke-width:1.5;stroke-miterlimit:10;}
	.st34{clip-path:url(#SVGID_36_);}
	.st35{fill:#FFFFFF;stroke:#000000;stroke-width:6;stroke-miterlimit:10;}
	.st36{fill:none;stroke:#000000;stroke-width:0.5;stroke-miterlimit:10;}
	.st37{clip-path:url(#SVGID_38_);}
	.st38{fill:#EADED3;stroke:#000000;stroke-width:1.5;stroke-miterlimit:10;}
	.st39{fill:#F37A7B;stroke:#000000;stroke-width:1.5;stroke-miterlimit:10;}
	.st40{clip-path:url(#SVGID_40_);}
	.st41{fill:#2A5C7F;}
	.st42{fill:#FFFFFF;}
	.st43{fill:#90BBD2;}
	.st44{fill:#E2E2E2;}
	.st45{clip-path:url(#SVGID_42_);}
	.st46{fill:#18BAA8;stroke:#FFFFFF;stroke-width:2;stroke-miterlimit:10;}
	.st47{fill:none;stroke:#FFFFFF;stroke-width:2;stroke-miterlimit:10;}
	.st48{fill:#636364;}
	.st49{opacity:0.66;fill:#FFFFFF;}
	.st50{opacity:0.71;fill:#FFFFFF;}
	.st51{opacity:0.91;fill:#FFFFFF;}
	.st52{opacity:0.31;fill:#FFFFFF;}
	.st53{fill:#EADED3;}
	.st54{fill:#F37A7A;}
	.st55{fill:#C0D5DD;}
	.st56{fill:#BDDBCF;}
	.st57{fill:#59AB8F;}
	.st58{fill:#F7D1B1;}
	.st59{fill:#D8B295;}
	.st60{fill:#F4CBD8;}
	.st61{fill:none;stroke:#7ABCB2;stroke-width:47;stroke-miterlimit:10;}
	.st62{fill:#7ABCB2;}
	.st63{fill:#F6E6EC;}
	.st64{fill:#E5D3BE;}
	.st65{fill:#6E5261;}
	.st66{fill:#F6ECBB;}
	.st67{fill:#EA866B;}
	.st68{fill:#B7CEAE;}
</style>
<g>
	<g>
		<polygon class="st7" points="1000,1120.1 752.5,444.9 1247.5,444.9 		"/>
		<path class="st8" d="M1217.9,462.3c-128.3,1.4-327.4-32.3-435.9,0c-27.2,8.1-52.2-20.8-52.2-46.2v-20c0-25.4,21.9-26.9,52.2-31.2
			c107.6-15.4,327.9-13.2,435.9,0c30.4,3.7,52.2,5.8,52.2,31.2v21.2C1270.2,442.8,1246.7,462,1217.9,462.3z"/>
		<path class="st9" d="M1000,1121.5l-224.9-615c0,0,141,48.6,314.5,6.7c63.7-15.4,136.7-6.7,136.7-6.7L1000,1121.5z"/>
		<path class="st10" d="M976.4,1057c0,0,1.9-65.5,18.3-163.3c6.8-40.4,141.8-121.9,100.9-25.1c-25.5,60.3,22.4,140.4,1.6,176
			c-12.6,21.5-40.4,25.5-55.5-3.1c33.7,9.9,34.3-22.4,20.6-33.1c-9.8-7.6-22.9,2.2-24.6,16.6c-3,24.9-4.5,44.7-21.8,65.2
			c-5.9,7-15.4,29.3-5.6,39.4c5.3,5.5,19.2,6.1,22.4-0.1c-6.2,16-20.3,20.6-32.7,12.1C980.1,1128,991.5,1092.8,976.4,1057z"/>
		<circle class="st11" cx="1087.4" cy="634.8" r="64.1"/>
		<path class="st11" d="M913.9,885.6l37.9,103.7c27.2-4,48.1-27.4,48.1-55.8c0-31.1-25.2-56.4-56.4-56.4
			C932.7,877.1,922.5,880.2,913.9,885.6z"/>
	</g>
</g>
</svg>
