<?xml version="1.0" encoding="utf-8"?>
<!-- Generator: Adobe Illustrator 20.0.0, SVG Export Plug-In . SVG Version: 6.00 Build 0)  -->
<svg version="1.1" id="Layer_1" xmlns="http://www.w3.org/2000/svg" xmlns:xlink="http://www.w3.org/1999/xlink" x="0px" y="0px"
	 viewBox="0 0 2000 1500" style="enable-background:new 0 0 2000 1500;" xml:space="preserve">
<style type="text/css">
	.st0{fill:#EDEDED;}
	.st1{fill:#EBD3A7;}
	.st2{fill:#DDD4C7;}
	.st3{fill:none;stroke:#666566;stroke-width:5;stroke-miterlimit:10;}
	.st4{fill:none;stroke:#666566;stroke-width:2;stroke-miterlimit:10;}
	.st5{fill:none;stroke:#666566;stroke-width:3;stroke-miterlimit:10;}
	.st6{fill:#CFE5B4;}
	.st7{fill:#EA856A;}
	.st8{fill:#E5D3BF;}
	.st9{fill:#F8ECCC;}
	.st10{fill:#F7ECCC;}
	.st11{fill:#E8BE88;}
	.st12{fill:#86B5A3;stroke:#AA867E;stroke-width:7;stroke-miterlimit:10;}
	.st13{fill:none;stroke:#938A6F;stroke-width:7;stroke-miterlimit:10;}
	.st14{fill:#BCD8B2;}
	.st15{fill:#E3E7C5;}
	.st16{clip-path:url(#SVGID_4_);}
	.st17{fill:#CFD6CF;}
	.st18{fill:#FDF2F3;}
	.st19{fill:#FDE3E6;}
	.st20{fill:#E1E5E1;}
	.st21{clip-path:url(#SVGID_26_);}
	.st22{fill:#A89B80;}
	.st23{clip-path:url(#SVGID_28_);}
	.st24{fill:#D8EEEB;}
	.st25{clip-path:url(#SVGID_30_);}
	.st26{fill:#FFFFFF;stroke:#000000;stroke-miterlimit:10;}
	.st27{fill:#F4E48B;stroke:#000000;stroke-miterlimit:10;}
	.st28{clip-path:url(#SVGID_32_);}
	.st29{fill:#ED4889;}
	.st30{clip-path:url(#SVGID_34_);}
	.st31{fill:#90BBD2;stroke:#000000;stroke-width:1.5;stroke-miterlimit:10;}
	.st32{fill:#F7D1B1;stroke:#000000;stroke-width:1.5;stroke-miterlimit:10;}
	.st33{fill:#F0DBEB;stroke:#000000;stroke-width:1.5;stroke-miterlimit:10;}
	.st34{clip-path:url(#SVGID_36_);}
	.st35{fill:#FFFFFF;stroke:#000000;stroke-width:6;stroke-miterlimit:10;}
	.st36{fill:none;stroke:#000000;stroke-width:0.5;stroke-miterlimit:10;}
	.st37{clip-path:url(#SVGID_38_);}
	.st38{fill:#EADED3;stroke:#000000;stroke-width:1.5;stroke-miterlimit:10;}
	.st39{fill:#F37A7B;stroke:#000000;stroke-width:1.5;stroke-miterlimit:10;}
	.st40{clip-path:url(#SVGID_40_);}
	.st41{fill:#2A5C7F;}
	.st42{fill:#FFFFFF;}
	.st43{fill:#90BBD2;}
	.st44{fill:#E2E2E2;}
	.st45{clip-path:url(#SVGID_42_);}
	.st46{fill:#18BAA8;stroke:#FFFFFF;stroke-width:2;stroke-miterlimit:10;}
	.st47{fill:none;stroke:#FFFFFF;stroke-width:2;stroke-miterlimit:10;}
	.st48{fill:#636364;}
	.st49{opacity:0.66;fill:#FFFFFF;}
	.st50{opacity:0.71;fill:#FFFFFF;}
	.st51{opacity:0.91;fill:#FFFFFF;}
	.st52{opacity:0.31;fill:#FFFFFF;}
	.st53{fill:#EADED3;}
	.st54{fill:#F37A7A;}
	.st55{fill:#C0D5DD;}
	.st56{fill:#BDDBCF;}
	.st57{fill:#59AB8F;}
	.st58{fill:#F7D1B1;}
	.st59{fill:#D8B295;}
	.st60{fill:#F4CBD8;}
	.st61{fill:none;stroke:#7ABCB2;stroke-width:47;stroke-miterlimit:10;}
	.st62{fill:#7ABCB2;}
	.st63{fill:#F6E6EC;}
	.st64{fill:#E5D3BE;}
	.st65{fill:#6E5261;}
	.st66{fill:#F6ECBB;}
	.st67{fill:#EA866B;}
	.st68{fill:#B7CEAE;}
</style>
<g>
	<g>
		<g>
			<path class="st0" d="M1251.7,853.6c-8.2-62.4-23.5-82.3-33.7-98.3c-22.7-35.3-76.2-63.3-87-70.5c-11.6-7.7-28.4-19-31.5-45.4
				c-2.3-19.9-6.1-91.2-3.6-106c1-6.3,5.2-9,7.4-10.1c0,0,26.3-7.3,26.9-23.4c0.5-13.2-44-23-98.4-23c-54.3,0-99.4,8.7-99.4,22
				c0,14.6,27.1,24.4,27.1,24.4c2.2,1.1,4.3,3.9,5.4,10.1c2.5,14.8-4,81-5.6,101c-3.1,38.1-26.9,48.7-38.5,56.4
				c-10.8,7.2-63.1,38.3-84,67.5c-11.1,15.4-24.5,32.9-32.7,95.3c-8.2,62.4-14,170.7-14,200.3c0,29.5,1.5,71,3.9,80
				c0,0,0.9,14,18.2,19.3s213.6,4.8,213.6,4.8s200.3,0.4,217.7-4.8s18.2-19.3,18.2-19.3c2.5-9,3.9-50.5,3.9-80
				C1265.6,1024.4,1259.9,916,1251.7,853.6z"/>
		</g>
		<path class="st1" d="M955.5,484.5c-6.1-11.7-9.5-25.1-9.5-39.2c0-47.1,38.2-85.3,85.3-85.3s85.3,38.2,85.3,85.3
			c0,14.3-3.5,27.8-9.7,39.6c0,0-28.3-7.9-75.2-7.9C986.9,477,955.5,484.5,955.5,484.5z"/>
		<path class="st2" d="M1095.6,509.1c0-8.3-28-15.1-62.6-15.1s-62.6,6.7-62.6,15.1c0,2.8,3.3,5.5,8.9,7.8
			c0.1,16.4,1.1,61.4,9.8,69.1c8.6,7.6,77.1,7.4,86.7-1.6c5.8-5.5,8.7-50.2,9.5-67.1C1091.8,515,1095.6,512.2,1095.6,509.1z"/>
		<g>
			<polygon class="st3" points="1133.3,1118.5 924.3,1117.5 891.3,1083.5 891.3,881.5 927.3,846.5 1131.3,845.5 1168.3,880.5 
				1166.3,1088.5 			"/>
			<polygon class="st3" points="1098.9,818.6 954.3,818.6 940.1,799.7 940.1,767.7 960,750.8 1093.8,750.8 1115.6,767.7 
				1115.6,798.7 			"/>
			<polygon class="st4" points="1125,1106.9 932.8,1106 902.4,1074.7 902.4,889 935.6,856.8 1123.1,855.8 1157.2,888 1155.3,1079.3 
							"/>
			<polygon class="st5" points="1087.6,807.3 965.2,807.3 953.1,795 953.1,774 969.9,763 1083.2,763 1101.7,774 1101.7,794.3 			"/>
		</g>
		<g>
			<path class="st6" d="M770.1,1050.7c0,0,4.1-43.1,9.9-46.4c0,0-3.3-116.9,18.2-169.9c21.5-53,38-77,51.7-91
				c14.1-14.4,37-33.3,70.2-45.7c33.2-12.4,161.6-36.5,169.1-37.3c7.5-0.8,16-2.8,16-2.8s-1.4-25.5-2.2-28.3s-97.3,17.7-128.9,27.6
				c-14,4.4-33.9,12.8-51.2,21.7c-14,7.2-21.5,15.8-21.5,15.8s-47.8,40.7-55,47.9c-11,11-38.1,45.2-45.6,58.2
				c-7.5,13-20.2,40.5-28,64.8s-12.5,85.6-12.5,102.8C760.3,985.3,764.8,1027.7,770.1,1050.7z"/>
			<path class="st6" d="M842.8,906.3l35,46.7c0,0-8.7-81.8-5.6-144.8S891.4,710.3,901,697s50.7-30.9,50.7-30.9l1.3-6.8
				c0,0-19.1,6.5-34.9,17.1c-15.8,10.5-51.5,43.8-53,47.1s-10.1,29.5-11.5,36.9c-1.4,7.4-10.6,58.9-10.8,83.3
				C842.5,868.2,842.8,906.3,842.8,906.3z"/>
		</g>
	</g>
</g>
</svg>
